<?xml version="1.0" standalone="no"?><!DOCTYPE svg PUBLIC "-//W3C//DTD SVG 1.1//EN" "http://www.w3.org/Graphics/SVG/1.1/DTD/svg11.dtd"><svg t="1655175039291" class="icon" viewBox="0 0 1158 1024" version="1.1" xmlns="http://www.w3.org/2000/svg" p-id="1844" xmlns:xlink="http://www.w3.org/1999/xlink" width="226.171875" height="200"><defs><style type="text/css">@font-face { font-family: feedback-iconfont; src: url("//at.alicdn.com/t/font_1031158_u69w8yhxdu.woff2?t=1630033759944") format("woff2"), url("//at.alicdn.com/t/font_1031158_u69w8yhxdu.woff?t=1630033759944") format("woff"), url("//at.alicdn.com/t/font_1031158_u69w8yhxdu.ttf?t=1630033759944") format("truetype"); }
</style></defs><path d="M818.851096 407.488761C778.770628 407.488761 746.257038 440.002351 746.257038 480.082819 746.257038 520.185095 778.770628 552.676877 818.851096 552.676877 858.931565 552.676877 891.445155 520.185095 891.445155 480.082819 891.445155 440.002351 858.931565 407.488761 818.851096 407.488761M334.897973 407.488761C294.817505 407.488761 262.303915 440.002351 262.303915 480.082819 262.303915 520.185095 294.817505 552.676877 334.897973 552.676877 374.978442 552.676877 407.492032 520.185095 407.492032 480.082819 407.492032 440.002351 374.978442 407.488761 334.897973 407.488761M576.874536 867.247496C530.742744 867.247496 484.283855 861.741341 438.773551 850.870766 435.066435 849.998505 431.282996 849.551467 427.532266 849.551467 421.404621 849.551467 415.287879 850.707216 409.563656 853.018713L209.75009 932.939776 242.307294 794.446278C246.515961 776.673926 240.322896 758.094732 226.377597 746.351896 140.317984 673.877771 92.921413 579.280887 92.921413 480.082819 92.921413 266.607441 310.038488 92.918142 576.874536 92.918142 843.732387 92.918142 1060.827657 266.607441 1060.827657 480.082819 1060.827657 693.558196 843.732387 867.247496 576.874536 867.247496M576.874536 44.518468C282.856603 44.518468 44.521739 239.545492 44.521739 480.082819 44.521739 598.067245 102.091073 704.930322 195.216014 783.357636L141.310183 1012.435616 427.532266 897.962046C474.950644 909.257848 524.985811 915.647172 576.874536 915.647172 870.892464 915.647172 1109.227329 720.663761 1109.227329 480.082819 1109.227329 239.545492 870.892464 44.518468 576.874536 44.518468M576.874536 407.488761C536.794067 407.488761 504.280474 440.002351 504.280474 480.082819 504.280474 520.185095 536.794067 552.676877 576.874536 552.676877 616.955005 552.676877 649.468594 520.185095 649.468594 480.082819 649.468594 440.002351 616.955005 407.488761 576.874536 407.488761" p-id="1845"></path></svg>